<svg width="159" height="135" viewBox="0 0 159 135" fill="none" xmlns="http://www.w3.org/2000/svg">
<path d="M51.2194 14.3668C50.105 13.4961 49.0379 11.3028 47.6318 10.9011C47.0681 10.74 46.3272 10.0833 45.751 9.82132C44.8724 9.42196 43.9237 9.19869 43.069 8.7938C40.0311 7.3548 35.3294 7.68631 32.8809 10.1348C29.9453 13.0704 26.5743 15.5009 23.6332 18.442C22.0463 20.029 19.9773 21.714 18.7569 23.6318C17.7141 25.2705 16.4971 27.102 15.3086 28.6301C13.1694 31.3805 11.3422 34.4351 10.1536 37.7036C9.50508 39.487 9.09788 41.4126 8.34239 43.2069C7.61196 44.9417 7.71828 47.119 6.94915 48.8495C6.12569 50.7023 5.76489 53.2239 5.76489 55.2584C5.76489 58.0271 5.13793 60.9626 5.13793 63.7398C5.13793 66.0677 5.13793 68.3956 5.13793 70.7234C5.13793 71.6765 5.45141 72.5938 5.45141 73.4751C5.45141 74.5849 5.0697 75.4953 6.39185 75.4953" stroke="#1D2B34" stroke-width="8" stroke-linecap="round"/>
<path d="M51.8464 17.1881C51.5846 15.6549 51.7746 15.2329 53.17 14.7499C54.1338 14.4163 54.7211 13.6261 55.6081 13.1825C57.0267 12.4732 59.0858 11.8603 60.6238 11.4758C61.6138 11.2283 62.5059 11.268 63.5148 11.232C64.8267 11.1851 65.8287 10.2915 67.1372 10.2915C69.4175 10.2915 71.617 10.0611 73.8596 9.97806C76.0249 9.89786 78.2354 9.08778 80.4427 9.03762C82.8367 8.98321 85.1644 8.72414 87.5831 8.72414C89.4258 8.72414 90.9339 9.13383 92.6684 9.73424C93.5026 10.023 94.2207 10.5663 95.0369 10.8488C95.813 11.1175 96.7769 10.8212 97.5796 10.9359C100.122 11.2991 102.252 12.4859 104.981 12.4859C106.139 12.4859 108.536 11.7856 109.196 10.7966C110.281 9.16875 112.161 8.13252 113.602 6.84326C114.551 5.99401 116.981 5.40331 118.234 5.03204C119.977 4.51574 122.971 5.30776 124.504 6.2163C126.248 7.24995 127.813 8.52656 129.52 9.66458C131.006 10.6557 132.427 12.1847 134.117 12.7994C135.577 13.3303 136.608 15.3711 137.897 16.2302C139.284 17.1552 140.768 18.6491 141.972 19.8527C144.802 22.6827 146.294 25.9566 148.555 29.2222C154.181 37.3487 153.1 48.0958 153.1 57.5573C153.1 61.9403 154.041 66.107 154.041 70.4796C154.041 74.8202 153.1 79.0651 153.1 83.3323C153.1 86.9879 151.068 90.8557 148.851 93.6771C147.828 94.9789 145.989 96.8119 144.166 96.8119C142.48 96.8119 140.396 93.8258 139.307 92.7367" stroke="#1D2B34" stroke-width="8" stroke-linecap="round"/>
<path d="M122.066 74.8683C122.916 78.8379 128.025 81.7682 130.843 84.5862C131.893 85.6362 133.505 85.8923 134.292 87.2682C134.731 88.0372 135.528 88.4873 135.929 89.2884C136.178 89.7867 137.392 90.5837 137.392 90.9951C137.392 91.5097 135.784 89.8754 135.685 89.7586C134.425 88.2695 132.867 87.0634 131.61 85.5963C129.89 83.5902 128.822 81.7567 126.455 80.4413C125.773 80.0625 125.054 79.2496 124.504 78.6998C123.793 77.9892 123.006 76.7979 123.006 78.5082C123.006 81.4649 123.947 84.2846 123.947 87.2334C123.947 89.0563 124.574 90.791 124.574 92.667C124.574 94.9188 124.325 97.1055 124.26 99.3197C124.21 101.037 123.006 102.801 123.006 104.492C123.006 106.185 121.869 108.416 120.986 109.804C120.629 110.364 120.681 111.159 120.324 111.72C119.741 112.637 119.085 113.488 118.548 114.367C117.443 116.175 116.141 117.821 115.1 119.696C114.328 121.085 112.953 122.818 111.86 123.91C110.722 125.048 109.688 126.642 108.099 127.219C107.715 127.359 105.688 128.4 105.451 127.986C105.034 127.255 104.482 126.764 104.023 126.035C102.899 124.249 102.203 122.174 99.7914 121.873C98.6635 121.732 97.6341 121.139 96.5172 120.967C95.3894 120.794 94.7199 121.38 93.7133 121.646C91.6238 122.2 90.446 123.136 89.7078 125.269C88.4126 129.01 83.2735 131.239 79.6242 129.274C76.8532 127.782 74.1788 125.777 71.2821 124.328C69.697 123.536 67.7209 123.458 65.953 123.458C64.2983 123.458 62.9018 124.398 61.4075 124.398C60.2747 124.398 58.5966 125.941 57.4194 126.349C56.2456 126.755 54.9277 127.321 54.1104 128.23C52.5856 129.924 50.9927 126.126 50.1223 124.868C49.1602 123.479 47.5284 121.503 47.1616 119.853C46.8225 118.327 45.479 116.576 44.6364 115.238C43.9387 114.13 43.9094 112.787 43.2083 111.685C42.1789 110.067 42.8943 111.787 43.069 112.486" stroke="#1D2B34" stroke-width="8" stroke-linecap="round"/>
<path d="M4.51097 73.6144C5.23093 75.4593 4.75047 77.5232 5.52107 79.2571C6.05561 80.4598 6.50036 82.0194 6.68791 83.3323C7.13339 86.4506 10.142 88.7082 10.4671 91.7962C10.7556 94.5371 15.2058 96.3167 17.5204 95.0704C19.1506 94.1926 20.6284 93.4665 22.1355 92.4232C23.9836 91.1437 25.1612 89.2959 26.3152 87.4075C28.3675 84.0492 31.7246 81.2073 34.605 78.6301C35.9341 77.4409 36.6574 76.7751 37.496 75.1818C37.9278 74.3614 38.0533 73.6284 38.0533 74.9032C38.0533 76.7128 37.423 78.5361 37.1129 80.3194C36.195 85.5973 34.605 90.7921 34.605 96.185C34.605 98.034 34.2823 100.252 34.9185 102.002C35.2255 102.846 35.0751 103.815 35.5455 104.579C35.9201 105.188 36.2576 105.932 35.8589 106.53" stroke="#1D2B34" stroke-width="8" stroke-linecap="round"/>
<path d="M37.7398 99.0063C35.9634 101.523 36.4859 104.832 36.4859 107.784C36.4859 110.382 37.7349 113.18 39.76 114.837C40.6444 115.561 41.3474 116.534 41.8847 117.502C42.0649 117.826 43.5091 119.561 43.365 118.912C42.7827 116.292 41.2831 113.95 40.6308 111.406C40.0284 109.057 39.9342 106.142 39.9342 103.708" stroke="#1D2B34" stroke-width="8" stroke-linecap="round"/>
<path d="M52.4734 15.3072C50.5412 16.1284 47.9879 19.0216 47.0745 20.9498C46.0996 23.008 44.9312 25.2505 43.5218 27.0627C42.4438 28.4487 41.0454 29.9915 40.5437 31.7475C40.3444 32.445 39.8093 33.1888 39.6381 33.9592C39.3764 35.137 39.2529 36.4831 38.9241 37.6339C36.9262 44.6264 37.4263 51.958 37.4263 59.1769C37.4263 62.8202 37.1129 66.3666 37.1129 70.0094C37.1129 72.1784 37.9877 77.5821 36.1724 78.9436" stroke="#1D2B34" stroke-width="8" stroke-linecap="round"/>
<path d="M103.257 14.9937C105.016 15.7232 106.663 16.6457 108.238 17.6583C109.118 18.2241 109.848 19.0487 110.955 19.365C112.209 19.7234 115.757 21.2114 116.423 22.3779C117.686 24.5877 119.113 26.7323 120.342 28.9436C120.912 29.9706 121.439 31.8782 121.439 33.0362C121.439 34.6084 122.737 36.1254 123.024 37.7036C124.286 44.6472 123.633 52.1494 123.633 59.264C123.633 61.0404 123.633 62.8168 123.633 64.5932C123.633 65.6566 123.775 66.8423 123.32 67.8325C122.938 68.6634 122.416 69.6072 122.379 70.5493C122.304 72.5031 121.752 74.4258 121.752 76.3661C121.752 77.4342 121.752 79.5705 121.752 79.5705" stroke="#1D2B34" stroke-width="8" stroke-linecap="round"/>
<path d="M100.436 58.8809C98.9903 60.6732 98.6376 58.6123 99.2515 57.4528C99.8907 56.2454 101.341 58.6268 101.341 59.1944C101.341 59.3868 101.071 61.1835 100.592 60.9707C99.8083 60.6222 100.19 58.2741 100.296 57.6966C100.637 55.8488 102.706 56.3076 103.187 57.8708C103.439 58.6876 102.125 59.169 101.759 58.2539C101.164 56.7665 103.411 55.2059 104.337 56.7214C104.894 57.6325 104.705 61.0152 103.274 59.3163C102.835 58.7941 102.15 55.3399 103.571 56.1292C104.253 56.5085 105.179 59.1944 103.919 59.1944C101.969 59.1944 100.64 55.7856 102.822 55.45C104.594 55.1774 104.92 57.2655 102.961 57.5921C100.512 58.0003 101.342 54.2484 102.003 54.318C103.166 54.4404 103.794 57.5282 102.944 58.1843C100.875 59.7804 99.1503 55.9982 100.61 55.4674C101.668 55.0828 103.884 56.3937 103.048 57.6095C102.224 58.8088 97.8474 58.5064 100.122 56.6865" stroke="#1D2B34" stroke-width="8" stroke-linecap="round"/>
<path d="M59.0564 57.627C59.0922 57.9009 59.0943 61.7786 58.2901 61.3191C57.7975 61.0375 57.7772 58.7918 57.8199 58.2365C58.0533 55.2023 60.9378 57.3225 59.8053 58.7067C58.2483 60.6098 57.7696 56.6561 59.2306 56.3905C62.1344 55.8625 61.1819 61.3776 58.325 59.473C56.4129 58.1983 60.4419 54.6179 61.1985 57.6444C61.5425 59.0204 60.6843 60.6204 59.2132 60.7095C57.5623 60.8096 57.4118 59.0267 57.5064 57.7489C57.7041 55.0803 60.6514 54.0693 60.9199 57.1567C61.2022 60.4031 55.476 60.6938 56.4267 57.3135C56.9536 55.4401 61.2202 53.7513 61.1115 56.6865C60.9693 60.5242 54.3889 59.8713 56.6183 56.6865C59.2224 52.9664 63.5316 57.3822 59.5092 59.9258C55.8164 62.261 56.2741 54.258 58.8126 55.1888C60.0237 55.6328 60.8759 57.791 60.798 58.9854C60.7115 60.3108 57.986 60.2357 57.1755 59.9258C53.2647 58.4305 58.4652 54.7494 60.4845 57.2438C62.5721 59.8227 55.8058 59.4946 57.4542 57.9404C59.1841 56.3094 62.3093 58.2539 58.7429 58.2539" stroke="#1D2B34" stroke-width="8" stroke-linecap="round"/>
<path d="M63.1317 91.1693C64.4847 92.5223 66.7261 93.9276 67.5204 95.7147C67.8005 96.3451 68.5869 96.6627 68.931 97.2821C69.3427 98.0231 69.4427 98.8885 69.8715 99.6506C70.6172 100.976 71.7944 102.739 73.0063 103.708C74.2802 104.728 75.8779 106.482 77.395 107.157C80.6465 108.602 80.373 113.609 80.373 116.561C80.373 118.266 79.9499 120.62 80.6169 122.204C80.8516 122.761 80.6865 124.731 80.6865 124.712C80.6865 123.562 81.2867 122.399 81.3135 121.194C81.3829 118.068 82.2539 114.972 82.2539 111.859C82.2539 109.61 83.9245 107.999 85.528 106.687C86.3086 106.048 86.7027 104.902 87.4437 104.161C88.4016 103.203 89.3186 102.286 90.2651 101.34C91.9716 99.6334 93.0904 97.5742 94.7931 95.8715C95.4849 95.1797 97.3686 92.2866 96.2038 91.6395C94.0868 90.4634 91.4581 90.6089 89.1679 91.6395C86.6861 92.7563 83.296 92.1036 80.6865 91.8136C78.7088 91.5939 76.5807 91.7962 74.5911 91.7962C72.5384 91.7962 71.2281 91.5576 69.3316 90.9255C68.4146 90.6198 62.6683 89.9961 66.7193 90.4727C70.2792 90.8915 73.9666 90.4399 77.5517 90.5423C79.9271 90.6102 82.3352 90.8558 84.7618 90.8558C85.441 90.8558 86.1202 90.8558 86.7994 90.8558C89.1882 90.8558 82.0449 91.349 79.659 91.4653C77.9075 91.5508 76.005 91.7962 74.295 91.7962C73.1789 91.7962 76.5321 91.6562 77.6214 91.4131C79.5054 90.9926 81.4371 90.5798 83.2988 90.0721C84.6529 89.7028 85.7016 89.6019 87.0954 89.6019C87.5821 89.6019 88.1222 89.6717 88.5932 89.5322C90.364 89.0075 87.1908 89.5762 86.869 89.5845C84.3708 89.6485 81.8597 89.5295 79.4326 90.2288C78.4078 90.5241 77.5708 90.5403 76.5416 90.2463C75.0579 89.8223 79.5994 90.6878 81.1393 90.7861C82.3682 90.8646 83.6009 90.8558 84.8314 90.8558C84.8449 90.8558 87.1537 90.9417 87.078 91.03C86.2322 92.0168 82.1239 92.1605 80.9129 92.4058C79.6392 92.6637 75.838 93.264 77.1337 93.3636C78.8309 93.4942 80.5552 93.1873 82.2365 93.5726C83.0258 93.7535 85.8378 95.1038 83.9258 95.976C82.5229 96.6159 75.376 95.2053 80.1641 95.0007C81.7233 94.9341 84.6921 95.1867 84.6921 97.404C84.6921 98.7605 82.0584 99.453 81.0697 99.1108C79.2957 98.4967 79.2342 96.0304 81.0174 95.4535C82.5045 94.9724 84.5184 95.5252 84.9359 97.195C86.1228 101.943 77.297 98.0983 78.0045 97.0557C78.8408 95.8234 81.7223 95.9458 82.8112 96.5681C84.9809 97.8079 83.373 99.5766 81.4876 99.7377C79.7745 99.8841 77.5856 99.3969 78.5444 97.2995C79.3565 95.523 81.4278 96.1212 82.1146 97.7175C84.6915 103.707 75.4518 100.433 75.3574 97.7872C75.1744 92.6646 82.3205 95.4518 80.8607 99.0063C79.9547 101.212 75.2877 99.7004 74.2602 98.3793C72.6947 96.3666 76.0091 93.8258 77.6562 93.3636C79.6481 92.8048 82.9932 92.4735 83.2292 95.3838C83.4164 97.6922 79.6676 98.2325 78.109 97.7872C72.6589 96.23 79.8328 91.3194 82.1494 92.7018C87.3718 95.8184 78.2373 100.003 76.6809 95.5928C75.0753 91.0436 82.5304 91.0784 83.1247 95.0007C83.6288 98.3275 76.7958 99.3378 77.2382 97.1254" stroke="#1D2B34" stroke-width="8" stroke-linecap="round"/>
</svg>
