<svg width="54" height="54" viewBox="0 0 54 54" fill="none" xmlns="http://www.w3.org/2000/svg">
<path d="M27 47.25C24.1581 44.8259 21.5239 42.1684 19.125 39.3052C15.525 35.0055 11.25 28.602 11.25 22.5C11.2468 16.127 15.0846 10.3801 20.9724 7.94114C26.8603 5.50215 33.6376 6.85178 38.142 11.3602C41.104 14.3091 42.7633 18.3204 42.7501 22.5C42.7501 28.602 38.475 35.0055 34.875 39.3052C32.4761 42.1684 29.8419 44.8259 27 47.25ZM27 15.75C24.5885 15.75 22.3601 17.0365 21.1543 19.125C19.9486 21.2134 19.9486 23.7865 21.1543 25.875C22.3601 27.9635 24.5885 29.25 27 29.25C30.7279 29.25 33.75 26.2279 33.75 22.5C33.75 18.7721 30.7279 15.75 27 15.75Z" fill="#2E3A59"/>
</svg>
