<svg width="54" height="54" viewBox="0 0 54 54" fill="none" xmlns="http://www.w3.org/2000/svg">
<path d="M42.7444 45C23.5482 45.0272 8.97949 30.2839 9.00002 11.2556C9.00002 10.013 10.0074 9 11.25 9H17.1886C18.3036 9 19.2508 9.81929 19.4146 10.9222C19.807 13.5657 20.5766 16.1392 21.7001 18.5641L21.9313 19.0631C22.2528 19.757 22.0349 20.5815 21.4125 21.026C19.5734 22.3393 18.8706 24.983 20.3033 27.0458C22.1013 29.6344 24.3676 31.9003 26.9556 33.6974C29.0183 35.1297 31.6616 34.427 32.9749 32.5882C33.4196 31.9655 34.2446 31.7475 34.9389 32.0691L35.4357 32.2992C37.8607 33.4226 40.4344 34.1923 43.0781 34.5846C44.1811 34.7483 45 35.6955 45 36.8106V42.75C45 43.9926 43.9902 45 42.7475 45L42.7444 45Z" fill="#2E3A59"/>
</svg>
